<svg xmlns="http://www.w3.org/2000/svg" viewBox="0 0 508.3 145.4"><path d="M.2 51.2c12.8 0 25.5 0 38.3 0 6.3 16.6 12.6 33.1 19 50 .6-1.4 1-2.5 1.4-3.5 5.8-15.1 11.6-30.3 17.3-45.4.2-.6.4-1.1 1.3-1.1 12.2 0 24.5 0 36.7 0 .2 0 .4 0 .7.1-.9 2.1-1.7 4-2.5 6-12.4 28.9-24.7 57.8-37 86.7-.4 1-.9 1.2-1.9 1.2-10.6 0-21.3 0-31.9 0-1 0-1.4-.3-1.8-1.2-13-30.5-26-60.9-39-91.4-.2-.4-.4-.7-.5-1.1C.2 51.4.2 51.3.2 51.2zM321.8 145.1c0-31.3 0-62.5 0-93.7 12 0 23.9 0 36 0 0 5.4 0 10.7 0 16 .1 0 .2.1.3.1 1.3-1.4 2.6-2.7 4-4.1 4.7-4.6 9.9-8.6 16.2-10.6 7.7-2.4 15.4-2.1 22.7 1.5 5.1 2.5 8.5 6.7 10.9 11.7.3.6.5 1.1.7 1.5 3.1-2.7 6.1-5.6 9.3-8.1 5.4-4.3 11.6-7 18.5-7.8 7.8-.8 15.3.1 21.7 5.2 4.7 3.8 7.3 8.8 8.6 14.6.8 3.7 1.3 7.5 1.3 11.3.1 20.2.1 40.4.1 60.6 0 .6 0 1.1 0 1.8-12 0-24 0-36.1 0 0-.4 0-.9 0-1.4 0-16.4 0-32.7 0-49.1 0-1.6-.3-3.3-.7-4.8-1.1-3.7-3.7-5.7-7.5-6.1-4.4-.5-8.4.7-12.1 3.2-.7.5-.7 1.1-.7 1.8 0 18.2 0 36.5 0 54.7 0 .6 0 1.1 0 1.8-12.1 0-24 0-36.1 0 0-.5 0-.9 0-1.4 0-16.2 0-32.4 0-48.6 0-1.2-.1-2.5-.3-3.7-1-5.3-4.5-8.1-10-7.9-3.7.1-7.1 1.3-10 3.4-.3.2-.5.7-.6 1.2-.1.3 0 .7 0 1.1 0 18.1 0 36.2 0 54.2 0 .5 0 1.1 0 1.7C345.8 145.1 333.8 145.1 321.8 145.1zM224.5 132.4c-9.6 13.6-27 15.5-38.7 8.6-11.9-6.9-17.3-21-13.4-34 3.5-11.5 15.8-23.1 33.6-20.2 2.8-20.3 13.1-35.2 32-43.5 14-6.2 28.3-6.1 42.2.1 28.8 12.7 39.7 46.2 25.9 72.8-7.8 15.1-20.3 24.5-36.9 27.8C252.5 147.3 237.6 143.1 224.5 132.4zM280.1 92c0-11.7-9.5-21.1-21.1-21.1-11.6 0-21.2 9.6-21.2 21.1 0 11.8 9.6 21.1 21.5 21.1C270.6 113.1 280.1 103.5 280.1 92zM200.2 125.5c5.3.1 9.8-4.3 9.9-9.5.1-5.4-4.2-10-9.5-10-5.6-.1-10 4.2-10.1 9.7C190.5 121 194.9 125.4 200.2 125.5z"/><path d="M123 145.1c0-31.3 0-62.4 0-93.7 11.9 0 23.9 0 35.9 0 0 5.4 0 10.7 0 16.4 8.9-12.3 21.2-16.5 35.5-16.6 0 7.9 0 15.7 0 23.3-3.1.9-6.3 1.6-9.2 2.8-13.7 5.6-21.9 15.9-25.2 30.2-.7 3.2-1 6.5-1 9.7-.1 8.8 0 17.6 0 26.4 0 .5 0 .9 0 1.5C147 145.1 135.1 145.1 123 145.1zM18 11.7c5.3-4.7 9.1-4.4 13 .7 1.4-2.2 3.2-3.7 5.9-3.9 5-.5 8.2 2.2 8.3 7.3.1 3.8 0 7.5 0 11.3 0 1.7-.8 2.5-2.6 2.6-2.2.1-3.2-.6-3.3-2.4-.1-3.2-.1-6.5-.1-9.7 0-1.6-.3-3.1-2-3.8-1.7-.7-3.3-.2-4.6 1-.7.6-1 1.3-1 2.3.1 3.2 0 6.4 0 9.6 0 2.6-2.5 4-4.8 2.6-1-.6-1.1-1.6-1.1-2.6 0-2.8 0-5.7 0-8.5 0-.6 0-1.1-.1-1.7-.3-1.8-1.3-2.8-2.9-3-1.8-.2-4 1-4.5 2.4-.1.3-.1.7-.1 1.1 0 3.2 0 6.4 0 9.6 0 2.7-2.5 4.2-4.8 2.7-.6-.4-1.1-1.4-1.1-2.1-.1-5.7-.1-11.4 0-17.2 0-.3.4-.8.8-1C15.3 8.1 17.1 9.1 18 11.7zM168 11.3c0-3.3.1-6.3 0-9.2 0-1.2.4-1.6 1.5-1.8 2.4-.3 3.9.7 4.3 3.1.1.6.1 1.2.1 1.8 0 7.1 0 14.2 0 21.2 0 3-1.4 3.7-4.3 3.1-1.4-.3-1.5-1.6-1.7-2.8-.1.1-.3.1-.3.2-3.3 4.9-11.4 3.9-14.3-1.5-2-3.9-2.1-7.9-.2-11.9C155.8 7.8 163.7 6.8 168 11.3zM168.1 18.7c-.1-.8 0-1.9-.4-2.8-1-2-2.9-2.8-5.1-2.6-2.1.1-3.6 1.2-4.4 3.2-.9 2.2-.8 4.4.5 6.5 1.1 1.9 2.9 2.6 5 2.3 2.1-.3 3.6-1.4 4.2-3.4C168 20.9 168 19.9 168.1 18.7zM215.7 27.1c0 2.3-.1 4.8 0 7.3.1 3.4-1.8 3.6-4.4 3.2-.5-.1-1-.7-1.3-1.2-.3-.5-.3-1.2-.3-1.9 0-8 0-15.9 0-23.9 0-1.2.5-1.5 1.5-1.7 2.2-.4 3.5.5 4.5 3.1.1 0 .2 0 .2-.1 2.1-2.9 5-3.8 8.3-3.2 3.6.6 5.9 2.9 7 6.3 1.2 3.8 1 7.6-1.2 11.1-2.2 3.4-6.6 4.9-10.3 3.5C218.1 29 216.9 27.9 215.7 27.1zM215.7 18.9c0 .5 0 1 0 1.6 0 2.1 1.2 3.8 3.2 4.5 2 .7 3.9.5 5.4-1.1 1.9-1.9 2.1-4.3 1.4-6.8-.5-2-1.9-3.3-4-3.7C218.1 12.7 215.7 15 215.7 18.9zM55.4 12c2.5-3.5 5.9-4.2 9.7-3 3.9 1.2 5.8 4.3 6.3 8.1.5 3.5 0 6.9-2.4 9.8-3.2 3.9-10.3 4.4-13.2 0-.1-.1-.2-.1-.4-.3 0 2.7 0 5.4 0 8 0 2.7-2.4 4-4.7 2.6-.5-.3-.9-1-1-1.6-.2-.7-.1-1.5-.1-2.3 0-7.6 0-15.2 0-22.8 0-1.5.2-1.7 1.7-1.9 2-.2 3.3.6 3.9 2.5C55.2 11.5 55.3 11.7 55.4 12zM55.3 18.8c.1.8 0 1.6.2 2.4.3 2 1.5 3.3 3.3 3.9 1.9.6 3.7.3 5.2-1.1 1.6-1.5 1.9-3.5 1.7-5.6-.4-3.3-2.6-5.2-5.7-5C57 13.5 55.4 15.5 55.3 18.8zM142.8 16.9c-.1-1.8-.7-3.1-2.4-3.7-2-.7-4.5-.1-5.9 1.4-.1.1-.2.2-.3.4-1 1.3-1.8 1.4-3.3.6-1.2-.6-1.7-1.9-1-3.2.6-1 1.5-2.1 2.5-2.6 3.9-1.9 8-2 12.1-.3 2.9 1.2 4 3.7 4.1 6.6.1 4.1 0 8.2 0 12.2 0 .8-.3 1-1 1.2-2.4.5-3.6-.1-4.8-2.8-2.5 2.9-5.7 3.6-9.3 2.8-2.5-.6-4.2-2.4-4.5-4.7-.3-2.9.7-4.9 3.3-6.2 2.7-1.3 5.7-1.5 8.6-1.7C141.5 17 142.1 17 142.8 16.9zM142.8 20.3c-2.3.1-4.5 0-6.6 1.1-1 .5-1.6 1.3-1.5 2.5.1 1.2.9 1.8 2 2.1C140.2 26.8 143.2 24.2 142.8 20.3zM89 26.6c-1.5 1.9-3.3 3.1-5.6 3.4-4.6.6-8.2-2.1-8.5-6.8-.2-4-.1-8-.1-12 0-1.9.9-2.5 3-2.5 1.9 0 2.8.8 2.8 2.6 0 2.8 0 5.6 0 8.4 0 .5 0 1 .1 1.4.2 2.2 1.2 3.4 3 3.8 1.8.4 4-.6 4.9-2.2.2-.4.3-.9.3-1.4 0-3.2 0-6.4 0-9.6 0-2.7 2.4-4 4.8-2.7.9.5 1.2 1.4 1.2 2.3 0 5.7 0 11.4 0 17 0 .3-.4.8-.8 1C91.8 30.3 90 29.3 89 26.6zM199.2 19.4c0 6.4-4.4 10.7-11 10.7-6.5 0-10.9-4.4-10.9-10.9 0-6.3 4.5-10.7 11.1-10.6C194.9 8.5 199.2 12.9 199.2 19.4zM182.5 19.2c0 3.6 2.4 6.2 5.7 6.1 3.2 0 5.7-2.6 5.7-6 0-3.5-2.5-6.2-5.7-6.3C185 13.1 182.5 15.7 182.5 19.2zM245 8.5c6.5 0 11 4.4 11 10.8 0 6.4-4.5 10.8-11.1 10.8-6.5 0-10.9-4.3-10.9-10.8C234.1 12.8 238.5 8.5 245 8.5zM250.7 19.3c0-3.6-2.5-6.3-5.7-6.2-3.2 0-5.7 2.7-5.7 6.1 0 3.5 2.5 6.1 5.7 6.1C248.2 25.3 250.7 22.8 250.7 19.3zM124.2 15.4c-2-2-4.3-3-7.2-2.6-.4.1-.9.1-1.2.4-.4.4-1 1-1 1.5 0 .5.5 1.2 1 1.4 1.3.5 2.6.7 3.9 1.1 1.2.3 2.4.7 3.5 1.1 2 .9 3.3 2.4 3.4 4.7.1 2.4-.8 4.3-2.9 5.5-1.8 1.1-3.7 1.4-5.7 1.4-2.4 0-4.8-.1-7-1.3-.7-.4-1.4-1-1.9-1.6-.8-1.1-.6-2.3.3-3.3.5-.6 1-.7 1.7-.1 2.2 1.9 4.8 2.5 7.7 2 1-.2 1.9-.6 2-1.8.1-1.2-.8-1.6-1.8-1.8-1.4-.4-2.9-.7-4.3-1-.7-.2-1.4-.5-2.1-.7-4.7-1.9-4.2-7.8-.8-10.1 2.5-1.7 5.2-2 8.1-1.5 1.7.3 3.4.7 4.8 1.6C126.8 11.7 126.5 14.2 124.2 15.4zM1 15.8c0-3.6 0-7.1 0-10.7 0-1.1 0-2.3 1.2-2.8 1.3-.5 2.8-.6 4 .2 1 .7 1 1.9 1 2.9 0 5 0 10.1 0 15.1 0 2 0 3.9 0 5.9-.1 2.8-2.6 4.2-5.1 2.8-1-.6-1.2-1.5-1.2-2.6C1 23.1 1 19.5 1 15.8zM265.2 11.9c1.6-2.7 3.3-3.7 5.8-3.3 1.4.2 2.4.9 2.8 2.3.4 1.4.2 2.6-.8 3.7-.4.5-.8.6-1.4.2-2.4-1.4-4.8-.5-5.7 2.2-.3 1-.5 2.2-.5 3.3-.1 2.1 0 4.2 0 6.4 0 3.4-2.3 3.5-4.7 2.9-.9-.3-1.2-1.1-1.2-2 0-5.8 0-11.6 0-17.4 0-.3.4-.8.7-.9 2.1-.9 4.1 0 4.9 2.2C265 11.4 265.1 11.6 265.2 11.9zM99.5 14.3c0-4.2 0-8.3 0-12.5 0-.9.4-1.3 1.2-1.4 2.6-.5 4.4.8 4.6 3.5.1 1.8.1 3.6.1 5.4 0 5.8 0 11.6 0 17.4 0 2.7-2.3 4-4.7 2.7-.9-.5-1.1-1.4-1.1-2.3C99.5 22.8 99.5 18.5 99.5 14.3zM505.8 136c-.7 1.8-1.4 3.5-2.1 5.3-.3.7-.6 1.3-1.5 1.3-.8 0-1.1-.6-1.4-1.2-.7-1.7-1.4-3.5-2.3-5.5-.1.6-.1.9-.1 1.1 0 2.2 0 4.5 0 6.7 0 .8 0 1.5-1.1 1.4-1 0-1-.7-1-1.4 0-3.3 0-6.6 0-10 0-.6-.1-1.4.8-1.5 1-.1 2.1-.4 2.6.9.6 1.6 1.3 3.1 1.9 4.7.2.5.4.9.7 1.6.2-.5.4-.8.5-1.1.7-1.6 1.3-3.2 1.9-4.8.5-1.3 1.5-1.8 2.8-1.3.4.2.7.8.7 1.2.1 3.5 0 7 0 10.4 0 .8-.3 1.2-1.2 1.2-.8 0-1-.5-.9-1.2 0-2.6 0-5.3 0-7.9C506 136 505.9 136 505.8 136zM487.4 134.4c-1.2 0-2.3 0-3.3 0-.7 0-1.1-.2-1.1-1 0-.7.4-1 1-1 3 0 5.9 0 8.9 0 .4 0 .7.7 1 1-.3.3-.6.8-1 .9-.6.1-1.4.1-2 0-1-.1-1.4.2-1.4 1.3.1 2.4.1 4.9 0 7.3 0 .8.6 2.2-1 2.2-1.7 0-1.1-1.4-1.1-2.2C487.4 140.1 487.4 137.3 487.4 134.4z"/></svg>