<svg xmlns="http://www.w3.org/2000/svg" viewBox="0 0 50 50"><path d="M25.428,21.732c-5.038,0-9.137-4.099-9.137-9.137s4.099-9.137,9.137-9.137s9.137,4.099,9.137,9.137 S30.466,21.732,25.428,21.732z M25.428,4.665c-4.373,0-7.93,3.557-7.93,7.93s3.557,7.93,7.93,7.93s7.93-3.557,7.93-7.93 S29.801,4.665,25.428,4.665z"/><path d="M23.053 15.472l.261-.368c.19-.261.416-.285.689-.107.356.249.962.594 1.698.594.641 0 1.235-.333 1.235-1.021 0-1.425-4.014-1.283-4.014-3.836 0-1.223.914-2.173 2.233-2.387V7.716c0-.321.143-.487.475-.487h.083c.309 0 .463.143.463.416v.677c.819.059 1.401.368 1.722.594.261.154.285.404.143.665l-.202.404c-.154.285-.38.321-.677.154-.309-.19-.82-.439-1.425-.439-.713 0-1.283.416-1.283 1.009 0 1.413 4.014 1.164 4.014 3.824 0 1.211-.843 2.245-2.292 2.435v.594c0 .321-.154.499-.463.499H25.63c-.332 0-.475-.154-.475-.416v-.677c-.974-.107-1.663-.534-2.019-.808C22.887 15.982 22.875 15.721 23.053 15.472zM8.834 30.795c2.409-.955 4.819-1.911 7.228-2.866 1.119-.444 2.247-.895 3.431-1.133 1.247-.251 2.492-.091 3.747-.005 1.267.086 2.515-.028 3.77-.209 1.183-.171 2.38-.462 3.58-.462.732 0 1.89.186 1.9 1.128.008.848-.832 1.289-1.555 1.405-2.312.372-4.575 1.032-6.895 1.346-.662.09-.624 1.175 0 1.299 2.338.464 4.702.781 7.067 1.075 2.166.27 4.363.674 6.538.274.941-.173 1.871-.512 2.775-.817.994-.336 1.976-.704 2.974-1.025.818-.263 1.647-.523 2.487-.704.371-.08.743-.142 1.122-.15.144-.003.364.005.443.019.154.027.295.077.352.112.079.048.103.07.163.193.08.163.156.331.176.514.042.369-.22.652-.489.867-.818.656-1.86 1.035-2.788 1.501-1.965.987-3.941 1.925-5.954 2.811-1.926.848-4.03 2.052-6.202 1.888-1.272-.096-2.543-.314-3.808-.478-1.286-.166-2.571-.333-3.857-.499-1.286-.166-2.571-.333-3.857-.499-1.247-.161-2.533-.428-3.794-.419-1.233.009-2.334.499-3.429 1.015-1.068.503-2.108 1.068-3.112 1.691-.502.311-.994.638-1.478.977.33.134.66.268.99.403-1.371-3.375-1.875-7.025-1.467-10.646.049-.436-.47-.766-.853-.65-2.234.677-4.524 1.163-6.844 1.427-.348.04-.693.277-.674.674.185 3.888.63 7.764 1.334 11.592.175.954.365 1.906.575 2.853.086.389.199.773.536 1.021.429.316.922.236 1.408.131 1.94-.42 3.884-.828 5.818-1.275.446-.103.889-.291 1.119-.714.238-.436.175-.946.019-1.396-.345-.998-.597-2.03-.972-3.017-.129-.34-.454-.573-.829-.471-.326.089-.601.487-.471.829.286.753.47 1.536.717 2.302.066.205.141.406.215.608.05.137.072.319.137.446.009.017-.004.06-.008.081.026-.157.085-.065.025-.051-.201.045-.4.103-.603.148-1.697.372-3.394.744-5.091 1.116-.193.042-.387.094-.582.128.085-.015-.175.037-.173.025.042.032.085.065.127.097-.004-.008-.008-.016-.013-.024.038-.105-.107-.454-.129-.554-.046-.213-.092-.427-.136-.641-.178-.855-.343-1.712-.495-2.572-.289-1.637-.531-3.281-.72-4.932-.218-1.904-.371-3.814-.462-5.728-.225.225-.449.449-.674.674 2.442-.278 4.85-.763 7.202-1.475-.284-.217-.569-.433-.853-.65-.419 3.72.106 7.536 1.515 11.004.149.367.596.678.99.403 1.005-.703 2.049-1.35 3.13-1.931 1.037-.557 2.14-1.169 3.289-1.456 1.205-.302 2.543.028 3.75.184 1.335.173 2.67.345 4.005.518 2.662.344 5.323.715 7.989 1.032 2.406.286 4.57-.784 6.711-1.73 2.068-.913 4.135-1.824 6.145-2.86.986-.508 2.034-.928 2.964-1.537.9-.589 1.617-1.417 1.411-2.559-.16-.892-.729-1.621-1.64-1.796-.863-.165-1.766.002-2.608.207-1.959.476-3.829 1.239-5.744 1.855-.832.267-1.732.583-2.574.673-1.169.124-2.299.041-3.463-.098-2.427-.291-4.855-.58-7.266-.987-.585-.099-1.169-.205-1.751-.321 0 .433 0 .866 0 1.299 2.252-.305 4.433-.998 6.683-1.316 1.056-.15 2.035-.659 2.507-1.665.476-1.015.23-2.209-.674-2.894-.995-.755-2.359-.709-3.533-.554-1.351.177-2.688.456-4.048.565-1.388.111-2.742-.099-4.126-.127-1.354-.028-2.667.275-3.936.725-1.456.516-2.883 1.121-4.319 1.691-1.491.591-2.983 1.183-4.474 1.774-.338.134-.574.451-.471.829C8.093 30.646 8.494 30.93 8.834 30.795L8.834 30.795z"/></svg>