<svg xmlns="http://www.w3.org/2000/svg" viewBox="199.5 -150.5 50 50"><path d="M249.201-138.746c.418-.714.397-1.586-.057-2.277-.449-.683-1.235-1.059-2.066-.956l-8.068.994c-.947.117-1.883-.244-2.506-.947l-5.393-6.082c-.538-.608-1.398-.865-2.183-.651-.797.218-1.39.858-1.549 1.67l-1.548 7.981c-.181.93-.807 1.711-1.676 2.09l-7.452 3.249c-.758.33-1.253 1.049-1.292 1.875-.04.826.386 1.588 1.109 1.989l7.112 3.939c.829.459 1.378 1.296 1.47 2.239l.787 8.092c.081.823.611 1.516 1.384 1.808.246.093.501.14.761.14.192 0 .384-.026.57-.077.336-.092.649-.266.904-.503l5.942-5.547c.341-.317.757-.55 1.206-.672.447-.122.928-.134 1.379-.034l7.938 1.751c.338.075.699.066 1.033-.026.442-.12.828-.374 1.115-.732.517-.645.622-1.511.272-2.261l-3.438-7.366c-.401-.858-.354-1.859.126-2.675L249.201-138.746zM246.651-120.005l-.272-.506-7.939-1.751c-.747-.165-1.542-.145-2.278.056-.74.202-1.429.586-1.992 1.111l-5.941 5.545c-.034.031-.074.054-.192.076-.033 0-.066-.006-.097-.018-.101-.038-.168-.125-.179-.233l-.787-8.091c-.151-1.558-1.06-2.942-2.429-3.701l-7.112-3.939c-.095-.052-.148-.148-.143-.256.006-.108.068-.199.167-.242l7.452-3.249c1.436-.625 2.47-1.917 2.768-3.454l1.549-7.981c.021-.106.096-.186.199-.215.026-.007.051-.01.077-.01.078 0 .152.033.205.094l5.393 6.083c1.031 1.162 2.582 1.76 4.141 1.565l8.104-.996c.095 0 .179.046.231.126.059.091.063.2.007.294l-4.119 7.008c-.793 1.35-.872 3.003-.209 4.422l3.438 7.366c.045.099.032.208-.035.292-.038.047-.087.079-.145.095L246.651-120.005 246.651-120.005zM245.49-110.707c.187-.318.178-.707-.025-1.015-.179-.272-.479-.434-.803-.434l-2.79.336c-.229.027-.461-.059-.613-.232l-1.784-2.014c-.241-.27-.627-.382-.973-.289-.355.097-.62.382-.691.744l-.512 2.641c-.044.228-.198.42-.411.512l-2.465 1.076c-.34.148-.561.468-.576.836-.018.368.172.708.494.887l2.354 1.304c.203.113.337.317.36.548l.261 2.679c.036.367.273.676.617.805.11.041.224.062.34.062.087 0 .172-.012.252-.034.15-.04.289-.118.403-.225l1.967-1.836c.084-.078.187-.135.296-.165.11-.029.228-.031.339-.008l2.625.579c.151.033.308.031.463-.011.197-.054.369-.167.497-.327.229-.288.275-.674.12-1.007l-1.138-2.439c-.099-.209-.087-.454.031-.655L245.49-110.707zM243.083-107.259l1.005 2.153-2.32-.512c-.286-.064-.59-.056-.873.022-.284.078-.548.225-.762.425l-1.736 1.643-.232-2.387c-.059-.597-.407-1.127-.931-1.417l-2.079-1.151 2.179-.95c.55-.24.947-.735 1.06-1.323l.453-2.332 1.576 1.778c.394.445.985.673 1.586.599l2.358-.291-1.204 2.049C242.86-108.436 242.83-107.803 243.083-107.259zM203.295-103.066c3.801-6.668 8.998-12.169 15.274-16.565.995-.697.047-2.345-.959-1.64-6.541 4.582-11.993 10.295-15.955 17.247C201.047-102.959 202.688-102.002 203.295-103.066L203.295-103.066zM216.302-104.847c.39-4.232 2.017-8.037 4.595-11.394.746-.972-.905-1.916-1.64-.959-2.793 3.638-4.433 7.786-4.854 12.353C214.29-103.627 216.191-103.638 216.302-104.847L216.302-104.847zM201.062-112.035c3.736-4.791 8.559-8.365 14.274-10.45 1.141-.416.649-2.253-.505-1.832-6.02 2.196-11.167 5.879-15.112 10.938C198.975-112.424 200.309-111.069 201.062-112.035L201.062-112.035z"/></svg>