<svg viewBox="0 0 51 51" xmlns="http://www.w3.org/2000/svg" xmlns:xlink="http://www.w3.org/1999/xlink"><defs><path d="M20.1775708,36.447399 C21.4934737,36.8981476 18.6397059,40.7142857 24.375,40.7142857 C30.1102941,40.7142857 27.3978411,36.8730192 28.7694362,36.3781208 C33.7328557,34.5872213 37.2794118,29.849122 37.2794118,24.2857143 C37.2794118,17.1849104 31.5019098,11.4285714 24.375,11.4285714 C17.2480902,11.4285714 11.4705882,17.1849104 11.4705882,24.2857143 C11.4705882,29.9224551 15.1112572,34.7119868 20.1775708,36.447399 Z" id="a"/><mask id="b" maskContentUnits="userSpaceOnUse" maskUnits="objectBoundingBox" x="0" y="0" width="25.809" height="29.286" fill="#FFF"><use xlink:href="#a"/></mask></defs><g transform="translate(1)" stroke="#FFF" fill="none" fill-rule="evenodd"><use mask="url(#b)" stroke-width="4" xlink:href="#a"/><rect fill="#FFF" x="20.074" y="42.857" width="8.603" height="1.429" rx=".714"/><rect fill="#FFF" x="20.074" y="45.714" width="8.603" height="1.429" rx=".714"/><rect fill="#FFF" x="21.507" y="48.571" width="5.735" height="1.429" rx=".714"/><rect fill="#FFF" x="40.147" y="24.286" width="8.603" height="1.429" rx=".714"/><rect fill="#FFF" y="24.286" width="8.603" height="1.429" rx=".714"/><rect fill="#FFF" transform="rotate(-90 24.375 5)" x="20.074" y="4.286" width="8.603" height="1.429" rx=".714"/><rect fill="#FFF" transform="rotate(-45 38.713 10.628)" x="34.412" y="9.913" width="8.603" height="1.429" rx=".714"/><rect fill="#FFF" transform="scale(-1 1) rotate(-45 0 34.859)" x="5.735" y="9.913" width="8.603" height="1.429" rx=".714"/></g></svg>