<svg viewBox="0 0 56 56" xmlns="http://www.w3.org/2000/svg"><g fill="none" fill-rule="evenodd"><circle stroke="#FFF" stroke-width="2" cx="28.5" cy="27.5" r="13.5"/><path fill="#FFF" d="M27 0H29V9H27zM27 47H29V56H27z"/><path fill="#FFF" transform="rotate(-90 4.5 28)" d="M3.5 23.5H5.5V32.5H3.5z"/><path fill="#FFF" transform="rotate(-90 51.5 28)" d="M50.5 23.5H52.5V32.5H50.5z"/><path fill="#FFF" transform="rotate(-45 11.107 11.107)" d="M10.107 6.299H12.107V15.914000000000001H10.107z"/><path fill="#FFF" transform="rotate(-45 43.89 43.89)" d="M42.889 39.389H44.889V48.389H42.889z"/><path fill="#FFF" transform="rotate(-135 11.238 43.77)" d="M10.238 38.963H12.238V48.578H10.238z"/><path fill="#FFF" transform="rotate(-135 44.02 11.988)" d="M43.02 7.488H45.02V16.488H43.02z"/></g></svg>