<svg xmlns="http://www.w3.org/2000/svg" viewBox="0 0 50 50"><path d="M38.688,49.967H11.311c-2.707,0-4.909-2.201-4.909-4.907V19.741c-0.01-4.847,1.914-8.715,5.562-11.184 C15.176,6.375,19.562,5.267,25,5.266l0,0c5.437,0.002,9.824,1.109,13.037,3.292c3.649,2.47,5.571,6.337,5.56,11.185L43.597,45.06 C43.597,47.766,41.395,49.967,38.688,49.967z M24.987,6.841c-5.04,0-9.236,1.043-12.136,3.019 c-3.269,2.236-4.863,5.468-4.874,9.882V45.06c0.004,1.833,1.5,3.328,3.336,3.333h27.376c1.835-0.005,3.331-1.5,3.335-3.334V19.741 c-0.011-4.413-1.605-7.645-4.874-9.882c-2.898-1.975-7.095-3.018-12.135-3.018c-0.005,0-0.009,0-0.014,0l0,0 C24.996,6.841,24.991,6.841,24.987,6.841z"/><path d="M38.982 20.532c-.434 0-.787-.354-.787-.79-.013-3.096-1.029-5.23-3.197-6.718-2.261-1.541-5.711-2.355-9.977-2.355-.014 0-.026 0-.042 0-4.269 0-7.718.815-9.977 2.357-2.171 1.487-3.188 3.621-3.199 6.717 0 .435-.353.789-.786.789-.436 0-.79-.354-.79-.79-.01-3.574 1.298-6.272 3.889-8.019C16.646 10.006 20.41 9.097 25 9.093c4.589.004 8.352.913 10.884 2.631 2.59 1.747 3.898 4.446 3.887 8.019C39.772 20.178 39.418 20.532 38.982 20.532zM34.716 44.376h-19.43c-1.73-.003-3.14-1.413-3.142-3.143l-.001-7.359c.003-1.732 1.414-3.141 3.144-3.142h19.428c1.729.001 3.14 1.41 3.142 3.141v7.36C37.854 42.963 36.445 44.373 34.716 44.376zM13.718 33.874v7.359c.001.862.704 1.565 1.569 1.567h19.427c.862-.002 1.564-.705 1.566-1.568v-7.358c-.002-.863-.704-1.566-1.567-1.568H15.286C14.422 32.307 13.719 33.011 13.718 33.874z"/><path d="M32.948 35.985H17.051c-.434 0-.788-.353-.788-.787s.354-.788.788-.788h15.897c.435 0 .789.354.789.788S33.383 35.985 32.948 35.985zM27.319 18.189h-4.637c-.658 0-1.267-.162-1.761-.469-.587-.363-.926-.912-.928-1.506.002-.597.34-1.147.928-1.511.493-.305 1.102-.467 1.76-.468h4.638c.66.001 1.269.163 1.761.468.586.364.925.914.929 1.508-.005.598-.344 1.147-.929 1.51C28.588 18.026 27.979 18.189 27.319 18.189zM20.886 3.358c.004.175-.092.331-.244.401-.309.132-.658.543-.933 1.05-.279.503-.493 1.078-.631 1.488-.046.138-.16.243-.297.273-.465.106-.918.229-1.36.365-.037.013-.076.018-.115.018-.098 0-.193-.038-.269-.108-.105-.096-.154-.244-.131-.388.133-.791.478-1.791.968-2.668.496-.866 1.112-1.643 1.964-1.843.182-.039.363-.075.542-.108.117-.023.237.008.328.086.092.079.147.193.15.318L20.886 3.358zM29.381 2.165c.004-.125.059-.239.15-.318.091-.078.21-.109.328-.086.18.033.361.069.542.108.852.199 1.468.977 1.964 1.843.49.877.835 1.877.968 2.668.024.144-.026.291-.131.388-.076.07-.171.108-.269.108-.039 0-.078-.005-.115-.018-.442-.136-.895-.259-1.36-.365-.137-.03-.251-.135-.297-.273-.137-.41-.351-.985-.631-1.488-.275-.507-.625-.918-.933-1.05-.152-.069-.248-.226-.244-.401L29.381 2.165z"/><g><path d="M29.106,4.235c-0.17,0-0.306-0.044-0.415-0.089c-0.184-0.088-0.688-0.209-1.384-0.279c-1.267-0.138-3.193-0.14-4.49,0 c-0.699,0.07-1.196,0.19-1.379,0.277c-0.112,0.045-0.231,0.088-0.401,0.092c-0.001,0-0.002,0-0.003,0 c-0.214,0-0.476-0.095-0.635-0.307c-0.156-0.2-0.183-0.408-0.189-0.546l-0.039-1.557c0.026-0.499,0.295-0.88,0.738-1.056 c2.863-0.983,5.447-0.98,8.294-0.004l0.009,0.004c0.432,0.17,0.69,0.52,0.732,0.986l0.004,0.009l0.001,0.091l-0.038,1.523 c-0.005,0.14-0.03,0.346-0.189,0.552C29.565,4.142,29.298,4.235,29.106,4.235z"/></g></svg>