<svg xmlns="http://www.w3.org/2000/svg" viewBox="0 0 50 50"><path d="M44.431,37.422h4.256V5.148H1.313v32.274h35.095l1.682,1.313H0V3.834h50v34.901h-6.908L44.431,37.422z"/><path d="M45.037,30.631L45.015,9.674c0-0.055-0.048-0.103-0.103-0.103H5.597c-0.055,0-0.103,0.048-0.103,0.103v24.362 c0,0.055,0.048,0.103,0.103,0.103h29.341l-0.106,1.313H5.597c-0.781,0-1.416-0.636-1.416-1.416V9.674 c0-0.781,0.636-1.416,1.416-1.416h39.314c0.781,0,1.416,0.636,1.416,1.416v22.214L45.037,30.631z"/><path d="M39.184 16.919H10.41c-.363 0-.657-.294-.657-.657 0-.363.294-.657.657-.657h28.774c.363 0 .657.294.657.657C39.841 16.625 39.547 16.919 39.184 16.919zM39.184 20.921H10.41c-.363 0-.657-.294-.657-.657 0-.363.294-.657.657-.657h28.774c.363 0 .657.294.657.657C39.841 20.627 39.547 20.921 39.184 20.921zM33.126 24.924H10.41c-.363 0-.657-.294-.657-.657 0-.363.294-.657.657-.657h22.716c.363 0 .657.294.657.657C33.783 24.63 33.489 24.924 33.126 24.924zM40.435 39.814c-.326 0-.652-.102-.93-.305l-.601-.44c-.143-.105-.355-.169-.499-.161l-.744.003c-.002 0-.003 0-.005 0-.687 0-1.29-.439-1.501-1.094l-.227-.709c-.055-.172-.163-.319-.309-.425l-.603-.435c-.56-.403-.79-1.114-.574-1.77l.231-.706c.056-.172.056-.354 0-.526l-.231-.707c-.216-.655.015-1.367.574-1.77l.603-.435c.146-.106.253-.253.309-.426l.227-.707c.211-.655.814-1.095 1.501-1.095.002 0 .003 0 .005 0l.744.003c.002 0 .003 0 .003 0 .177 0 .353-.057.497-.162l.599-.439c.544-.399 1.317-.398 1.862-.001l.602.44c.145.106.317.161.496.161.001 0 .002 0 .003 0l.743-.003c.666-.029 1.296.438 1.506 1.095l.227.708c.055.169.165.32.31.425l.603.435c.56.404.79 1.115.574 1.77l-.232.706c-.055.172-.055.354 0 .526l.232.706c.216.654-.015 1.366-.574 1.77l-.603.435c-.145.105-.255.256-.31.426l-.227.707c-.21.655-.812 1.095-1.501 1.095-.002 0-.003 0-.005 0l-.743-.003c-.002 0-.003 0-.003 0-.179 0-.351.055-.497.162l-.599.439C41.089 39.712 40.762 39.814 40.435 39.814zM38.408 38.172c.332 0 .662.108.931.304l.601.44c.294.216.695.217.994-.001l.599-.439c.273-.2.595-.305.931-.305.002 0 .003 0 .005 0l.743.003c.002 0 .003 0 .003 0 .368 0 .689-.234.801-.583l.227-.708c.102-.319.308-.602.579-.797l.603-.435c.299-.216.422-.596.306-.945L45.5 34c-.105-.322-.105-.662 0-.984l.232-.706c.115-.35-.008-.73-.306-.945l-.603-.435c-.271-.195-.477-.478-.579-.796l-.227-.709c-.112-.349-.433-.583-.801-.583-.001 0-.003 0-.003 0l-.743.003c-.002 0-.003 0-.005 0-.336 0-.658-.105-.93-.304l-.601-.44c-.29-.21-.704-.212-.994.001l-.599.439c-.27.196-.6.305-.932.305-.001 0-.003 0-.004 0l-.744-.003c-.002 0-.003 0-.003 0-.367 0-.689.234-.801.584l-.227.707c-.104.324-.305.599-.579.797l-.603.435c-.299.215-.422.595-.306.945l.231.707c.107.322.107.662 0 .985l-.231.706c-.115.351.008.73.306.945l.603.435c.274.198.474.473.579.796l.227.709c.113.349.434.583.801.583.001 0 .002 0 .003 0l.744-.003C38.404 38.172 38.406 38.172 38.408 38.172zM38.956 46.166c-.109 0-.218-.032-.312-.095l-1.405-.937-2.521.962c-.21.079-.447.024-.597-.133-.15-.155-.195-.396-.109-.598l2.605-6.149.372.307c.032.02.368.215 1.195.16.452-.016.876.155 1.223.474l.073.072c.09.068.227.154.369.224l.233.113-.579 5.11c-.02.19-.142.359-.317.44C39.114 46.149 39.036 46.166 38.956 46.166zM38.773 45.592c0 .001 0 .002 0 .003V45.592zM39.052 45.459l.003.002C39.054 45.46 39.053 45.459 39.052 45.459zM37.331 44.312l1.475.984.489-4.311c-.108-.066-.211-.137-.311-.217l-.067-.064c-.213-.195-.461-.317-.696-.288-.588.042-.998-.024-1.269-.11l-2.097 4.951L37.331 44.312zM41.916 46.166c-.08 0-.16-.018-.235-.053-.17-.078-.292-.247-.312-.44l-.579-5.091.22-.118c.139-.074.268-.172.396-.268.241-.179.514-.382.858-.473.241-.031.441-.028.639-.031.397-.001.736.002.997-.18l.371-.259 2.59 6.111c.084.204.04.445-.111.601-.153.156-.392.208-.594.132l-2.522-.962-1.409.938C42.132 46.134 42.025 46.166 41.916 46.166zM42.099 45.59v.002C42.099 45.592 42.099 45.591 42.099 45.59zM41.816 45.461C41.816 45.461 41.815 45.461 41.816 45.461L41.816 45.461zM41.575 40.98l.49 4.316 1.476-.984 2.475.945-2.094-4.943c-.341.114-.696.108-1.022.113-.172-.001-.34-.002-.502.017-.154.044-.347.189-.553.341C41.757 40.852 41.667 40.918 41.575 40.98z"/><path d="M40.436,30.295c1.856,0,3.368,1.511,3.368,3.368s-1.511,3.368-3.368,3.368s-3.368-1.512-3.368-3.368 C37.068,31.807,38.579,30.295,40.436,30.295z"/></svg>