<svg width="100%" height="100%" viewBox="0 0 43 33" version="1.1" xmlns="http://www.w3.org/2000/svg" xmlns:xlink="http://www.w3.org/1999/xlink">
  <path d="M41.113 7.004c0 .69-.242 1.277-.725 1.76L18.132 31.02a2.396 2.396 0 0 1-1.76.724c-.69 0-1.276-.241-1.76-.724L1.725 18.132A2.396 2.396 0 0 1 1 16.372c0-.69.242-1.276.725-1.76l3.52-3.52a2.396 2.396 0 0 1 1.759-.724c.69 0 1.277.242 1.76.725l7.608 7.634L33.35 1.725A2.396 2.396 0 0 1 35.109 1c.69 0 1.276.242 1.76.725l3.52 3.52c.482.482.724 1.069.724 1.759z" stroke="#000" stroke-width="2" fill="none" fill-rule="evenodd"/>
</svg>