<?xml version="1.0" encoding="utf-8"?>
<!-- Generator: Adobe Illustrator 22.0.1, SVG Export Plug-In . SVG Version: 6.00 Build 0)  -->
<svg version="1.1" id="Layer_1" xmlns="http://www.w3.org/2000/svg" xmlns:xlink="http://www.w3.org/1999/xlink" x="0px" y="0px"
	 viewBox="0 0 508.4 145.8" style="enable-background:new 0 0 508.4 145.8;" xml:space="preserve">
<style type="text/css">
	.st0{fill:#FFFFFF;}
	.st1{fill:#FFFFFF;}
</style>
<g>
	<path class="st0" d="M321.8,145.5c0-31,0-61.9,0-92.9c0-1,0.3-1.2,1.3-1.2c11.2,0,22.4,0.1,33.6,0c1,0,1.4,0.2,1.3,1.3
		c-0.1,4.9,0,9.8,0,14.6c0.5,0.2,0.6-0.2,0.8-0.4c4.3-4.5,8.8-8.8,14.4-11.7c9.2-4.8,18.6-5.2,28.1-0.7c5.1,2.4,8.4,6.6,10.8,11.6
		c0.2,0.5,0.5,1,0.7,1.5c0,0.1,0.1,0.1,0.2,0.2c2.6-3,5.5-5.7,8.6-8.1c5.6-4.2,11.7-7.2,18.7-8c7.9-0.9,15.4,0,21.9,5.1
		c4.7,3.7,7.2,8.9,8.6,14.6c1,3.8,1.4,7.6,1.4,11.5c0,20.5,0,41,0,61.4c0,0.3-0.1,0.7,0.1,1.1c-12.1,0-24.2,0-36.2,0
		c0-16.8,0-33.5,0-50.3c0-1.1-0.1-2.2-0.3-3.3c-0.8-5.1-4-7.9-9.1-8.1c-3.8-0.2-7.2,0.9-10.4,2.9c-0.9,0.5-1.2,1.2-1.2,2.2
		c0,18.6,0,37.1,0,55.7c0,0.3-0.1,0.6,0.1,0.9c-12.1,0-24.2,0-36.2,0c0-16.6,0-33.2,0-49.8c0-1.2-0.1-2.5-0.2-3.7
		c-0.7-4.9-3.6-7.8-8.5-8.3c-4.1-0.4-7.7,0.8-11.1,2.9c-0.8,0.5-1.2,1.1-1.2,2.1c0,18.6,0,37.2,0,55.8c0,0.3-0.1,0.6,0.1,0.9
		C345.9,145.5,333.8,145.5,321.8,145.5z"/>
	<path class="st1" d="M0.2,51.4c12.4,0,24.7,0,37.1,0c1,0,1.4,0.4,1.8,1.3c6,15.8,12,31.6,18,47.3c0.1,0.4,0.2,0.8,0.6,1.2
		c0.4-1,0.8-2,1.1-2.9c5.8-15.2,11.6-30.4,17.4-45.6c0.3-0.9,0.7-1.2,1.7-1.2c12,0,24,0,36,0c0.9,0,1.2,0.1,0.8,1.1
		c-13.2,30.9-26.4,61.8-39.6,92.7c0,0.1-0.1,0.2-0.1,0.3c-11.5,0-23,0-34.6,0c0-0.2,0-0.3-0.1-0.5C27.4,115.3,14.7,85.6,2,55.9
		c-0.6-1.3-1-2.8-1.9-4C0.2,51.8,0.2,51.6,0.2,51.4z"/>
	<path class="st0" d="M122.8,145.5c0.2-0.3,0.1-0.7,0.1-1.1c0-30.5,0-61,0-91.6c0-1.2,0.3-1.5,1.5-1.5c11.1,0,22.2,0,33.4,0
		c1.1,0,1.3,0.3,1.3,1.3c-0.1,5,0,9.9,0,14.9c0.3,0.2,0.4-0.1,0.5-0.2c5.8-8.3,14-12.8,23.8-14.9c3.4-0.7,6.8-1,10.2-1
		c0.8,0,1.1,0.2,1.1,1.1c0,7.1,0,14.2,0,21.2c0,1-0.3,1.3-1.2,1.4c-6.5,1.1-12.4,3.6-17.7,7.6c-9.1,7-14.3,16.4-16.2,27.6
		c-0.4,2.5-0.5,5.1-0.5,7.6c0,9.2,0,18.3,0,27.5C147,145.5,134.9,145.5,122.8,145.5z"/>
	<path class="st0" d="M496.7,145.5c-0.4-0.4-0.5-0.9-0.5-1.5c0-3.3,0-6.6,0-10c0-0.7-0.1-1.5,0.9-1.6c1-0.1,2-0.3,2.6,0.9
		c0.8,1.8,1.5,3.7,2.3,5.5c0.1,0.1,0.2,0.3,0.2,0.4c0.5-0.2,0.5-0.7,0.7-1.1c0.6-1.5,1.2-3,1.9-4.5c0.5-1.2,1.4-1.6,2.7-1.3
		c0.7,0.2,0.8,0.7,0.8,1.3c0,3.5,0,7,0,10.4c0,0.6-0.3,1-0.7,1.3c-0.3,0-0.6,0-1,0c-0.4-0.5-0.5-1-0.5-1.6c0-2.6,0-5.1,0-7.7
		c-1,1.8-1.7,3.6-2.4,5.5c-0.3,0.7-0.7,1.1-1.5,1.2c-0.8,0-1.1-0.5-1.3-1.1c-0.7-1.8-1.5-3.6-2.2-5.4c-0.2,2.5-0.2,5-0.2,7.5
		c0,0.7-0.1,1.3-0.7,1.7C497.4,145.5,497,145.5,496.7,145.5z"/>
	<path class="st0" d="M487.8,145.5c-0.3-0.5-0.5-1-0.5-1.7c0-2.8,0-5.5,0-8.3c0-0.7-0.2-1-0.9-1c-0.8,0.1-1.6,0-2.4,0
		c-0.7,0-1-0.3-1-1c0-0.7,0.3-1,1-1c3,0,6,0,9,0c0.7,0,1,0.4,1,1.1c0,0.6-0.4,1-1,1c-0.7,0-1.4,0.1-2.2,0c-0.9-0.1-1.3,0.2-1.2,1.2
		c0.1,2.7,0,5.4,0,8c0,0.7-0.1,1.2-0.6,1.7C488.6,145.5,488.2,145.5,487.8,145.5z"/>
	<path class="st1" d="M259,145.3c-12.6-0.1-23.8-4.1-33.6-12c-0.7-0.6-1-0.5-1.6,0.2c-6,7.7-13.9,11.7-23.7,11.7
		c-14,0-26.4-10.6-28.6-24.5C169,104.7,179.3,90,195.3,87c3.2-0.6,6.4-0.6,9.7,0c1.1,0.2,1.3-0.2,1.3-1.1c0.4-4.4,1.5-8.7,3.1-12.8
		c7.5-18.1,20.8-29.5,40-33.1c17-3.2,32.3,1.3,45.2,12.9c11,10,16.8,22.5,17.3,37.4c0.5,14.8-4.4,27.6-14.5,38.4
		c-8.8,9.3-19.7,14.6-32.4,16.2C263,145.2,261,145.4,259,145.3z M280,92.2c0-11.7-9.5-21.1-21.1-21.1c-11.6,0-21.1,9.3-21.1,21
		c0,12.4,10.1,21.2,21.3,21.2C270.6,113.3,280,103.8,280,92.2z M200.3,125.6c5.4,0,9.8-4.3,9.8-9.7c0-5.3-4.3-9.8-9.6-9.8
		c-5.5,0-9.9,4.3-10,9.7C190.5,121.2,194.9,125.6,200.3,125.6z"/>
	<path class="st0" d="M163.2,27c-0.2,0.1-0.3,0.1-0.3,0.1c-4.9,5.1-12.5,3.7-14.9-2.9c-1.7-4.6-1.5-9.1,2-12.9
		c3.3-3.6,8.9-3.7,12.6-0.6c0.2,0.1,0.3,0.4,0.7,0.4c0-1.5,0-3.1,0-4.6c0-1.6,0-3.1,0-4.7c0-0.8,0.3-1.2,1-1.3
		c2.6-0.7,4.6,0.6,4.9,3.2c0.1,0.6,0.1,1.1,0.1,1.7c0,7,0,14.1,0,21.1c0,2.8-1.2,3.8-3.9,3.4C163.7,29.6,163.3,28.4,163.2,27z
		 M163.2,18.8c-0.1-0.8,0.3-1.9-0.4-2.9c-1.1-1.8-2.8-2.5-4.7-2.5c-2.1,0-3.7,0.9-4.6,2.9c-0.9,2.1-0.9,4.2,0,6.3
		c1.1,2.3,3.4,3.3,5.9,2.8c2.3-0.5,3.7-2.4,3.8-4.9C163.2,19.9,163.2,19.5,163.2,18.8z"/>
	<path class="st0" d="M188.1,27c-0.3,2.3-1.1,3-3.4,2.8c-1.9-0.1-2.7-1-2.7-3.1c0-8.3,0-16.6,0-24.9c0-0.9,0.4-1.3,1.2-1.4
		c2.8-0.6,4.7,0.9,4.8,3.9c0.1,2.4,0,4.8,0,7.2c0.1,0,0.2,0,0.3,0c5.2-5.2,13.4-3.2,15.4,3.9c1.1,3.8,0.8,7.6-1.5,11
		C199.3,30.9,191.7,31.8,188.1,27z M198.5,19.5c0-1-0.1-1.8-0.4-2.6c-0.9-2.6-3.2-3.9-6.1-3.4c-2.5,0.4-4,2.2-4,4.9
		c0,0.8,0,1.6,0,2.4c0.1,1.8,1,3.2,2.6,4C193.9,26.4,198.4,25,198.5,19.5z"/>
	<path class="st0" d="M70.7,23.3c0.7-3.4,1.4-6.4,2-9.5c0.2-1,0.4-2,0.7-2.9c0.5-1.6,1.6-2.3,3.3-2C77,8.9,77.4,9,77.8,9.2
		c1.6,0.7,1.8,1,1.2,2.7c-1.6,5.3-3.1,10.5-4.7,15.8c-0.4,1.4-1.1,2-2.5,2.1c-0.6,0-1.1,0-1.7,0c-1.3,0-2.2-0.7-2.6-1.9
		c-0.9-2.9-1.9-5.8-2.8-8.8c-0.1-0.4-0.3-0.7-0.5-1.4c-0.8,2.4-1.5,4.5-2.2,6.6c-0.4,1.2-0.8,2.4-1.2,3.6c-0.6,1.6-1.4,2-3.7,1.9
		c-1.8,0-2.6-0.5-3.1-2.1c-1.7-5.5-3.4-11.1-5.1-16.6c-0.2-0.7,0-1.1,0.5-1.5c0.7-0.4,1.5-0.8,2.3-0.9c1.7-0.3,3.1,0.5,3.5,2.3
		c0.8,3.8,1.6,7.7,2.4,11.5c0,0.1,0.1,0.3,0.1,0.5c0.5-0.3,0.5-0.8,0.6-1.2c0.9-2.9,1.8-5.7,2.7-8.6c0.5-1.6,1.4-2.3,3.3-2.3
		c1.8,0,2.7,0.6,3.2,2.2C68.6,16.5,69.6,19.7,70.7,23.3z"/>
	<path class="st0" d="M1,16.4C1,13,1,9.6,1,6.2c0-2.8,1.1-3.9,3.9-3.9c3.2,0,6.3-0.2,9.5,0.2c4.2,0.5,7.1,2.8,8,6.3
		c0.5,2.1,0.5,4.3-0.2,6.4c-1.1,3.2-3.7,4.7-6.8,5.3c-2.3,0.5-4.6,0.3-6.9,0.3c-0.8,0-1.1,0.2-1,1c0.1,1.7,0,3.4,0,5.2
		c0,2.1-0.9,2.9-3.2,3c-2.3,0-3.1-0.8-3.2-2.9C0.9,23.4,1,19.9,1,16.4z M7.3,11.5c0,1.2,0,2.5,0,3.7C7.3,15.7,7.4,16,8,16
		c1.5,0,3,0,4.6-0.1c2.6-0.2,4-1.9,4-4.5c-0.1-2.5-1.5-4-4.2-4.1c-1.4-0.1-2.8,0-4.2-0.1c-0.7,0-0.9,0.3-0.9,0.9
		C7.3,9.3,7.3,10.4,7.3,11.5z"/>
	<path class="st0" d="M136.2,21c-2.2,0-4.3,0-6.5,0c-1,0-1,0.3-0.8,1.1c0.6,2,2.6,3.5,4.9,3.7c2.5,0.2,4.8-0.4,6.3-2.6
		c0.3-0.5,0.7-0.5,1.1-0.3c1.9,0.5,2.7,2.5,1.6,4.2c-0.8,1.2-2,1.9-3.3,2.3c-3.3,1.1-6.7,1.3-10,0c-3.9-1.5-6-4.4-6.3-8.6
		c-0.4-5.6,2-9.8,6.5-11.5c5.6-2.1,12.7,0,14.2,7c0.2,1,0.3,2.1,0.2,3.2c-0.1,1-0.6,1.5-1.6,1.5C140.5,20.9,138.3,21,136.2,21z
		 M133.7,17.4c1.3,0,2.6-0.1,4,0c0.9,0,1.1-0.3,0.9-1.1c-0.6-2.3-2.3-3.6-4.9-3.5c-2.2,0.1-4.5,1.9-4.9,3.9
		c-0.1,0.7,0.2,0.7,0.7,0.7C130.9,17.4,132.3,17.4,133.7,17.4z"/>
	<path class="st0" d="M94.4,21c-2.2,0-4.3,0-6.5,0c-0.9,0-1,0.3-0.7,1c0.9,2.8,3.9,4.3,7.2,3.7c1.6-0.3,3-1,4-2.4
		c0.3-0.5,0.7-0.6,1.2-0.4c2.1,0.6,2.7,2.8,1.4,4.5c-0.9,1.1-2.1,1.8-3.4,2.2c-3,0.9-6.1,1-9.2,0c-4.5-1.4-7.1-5.5-6.8-10.9
		c0.2-4.2,2.3-7.5,6.2-9.2c4.1-1.7,8.1-1.4,11.6,1.6c2.5,2.2,3.4,5.2,3.2,8.4c0,1-0.6,1.5-1.6,1.5C98.8,20.9,96.6,21,94.4,21z
		 M91.9,17.4c1.3,0,2.6,0,3.8,0c1.3,0,1.4-0.2,1-1.5c-0.7-2.2-2.6-3.4-5.1-3.2c-2.1,0.2-4.3,2.1-4.5,4c-0.1,0.6,0.2,0.6,0.6,0.6
		C89.1,17.4,90.5,17.4,91.9,17.4z"/>
	<path class="st0" d="M35.8,8.5c6.5,0,11,4.4,11.1,10.8c0.1,6.4-4.5,10.9-11.1,10.9c-6.6,0-11-4.4-11-10.9
		C24.7,12.9,29.3,8.5,35.8,8.5z M41.5,19.4c0-3.6-2.4-6.2-5.8-6.1c-3.3,0-5.7,2.6-5.6,6.1c0,3.5,2.4,6.1,5.7,6.1
		C39,25.5,41.5,22.8,41.5,19.4z"/>
	<path class="st0" d="M216.8,23.3c0.9-2.5,1.6-4.8,2.4-7.1c0.6-1.6,1.1-3.3,1.7-4.9c1-2.7,3.4-3.4,5.7-1.7c0.5,0.4,0.7,0.7,0.5,1.4
		c-3.1,8-6.2,16-9.3,24c-1.1,2.8-3.3,3.5-5.6,2c-0.7-0.5-0.9-0.9-0.5-1.8c0.9-2,1.8-4,2.7-6c0.3-0.6,0.3-0.9-0.4-1.2
		c-0.6-0.2-0.9-0.7-1.2-1.3c-2.2-5.2-4.5-10.4-6.8-15.6c-0.3-0.7-0.1-1.1,0.4-1.5c2.3-1.8,4.8-1.1,5.9,1.7c1.4,3.6,2.7,7.2,4.1,10.9
		C216.5,22.5,216.6,22.8,216.8,23.3z"/>
	<path class="st0" d="M112.4,12c1.1-2.5,2.9-3.6,5.3-3.4c1.4,0.1,2.7,0.6,3.2,2.1c0.6,1.4,0.3,2.7-0.6,3.9c-0.4,0.5-0.8,0.8-1.6,0.3
		c-2.2-1.4-4.7-0.6-5.7,1.9c-0.5,1.2-0.6,2.5-0.6,3.8c0,2.2,0,4.3,0,6.5c0,2-0.9,2.9-3,2.9c-2.1,0-3-0.8-3-2.9c0-5.5,0-11,0-16.5
		c0-0.9,0.3-1.3,1.2-1.5C110.1,8.4,111.5,9.2,112.4,12z"/>
</g>
</svg>
