<svg width="100%" height="100%" viewBox="25 23 50 50" version="1.1" xmlns="http://www.w3.org/2000/svg" xmlns:xlink="http://www.w3.org/1999/xlink">
  <path d="M0,9.2949 C0,9.2949 9.986,7.7579 23.152,14.0879 L23.152,46.4999 C23.152,46.4999 8.398,41.3219 0.227,42.2809 L0,9.2949 L0,9.2949 Z" id="Stroke-1" stroke="#FFFFFF" stroke-width="2"></path>
  <path d="M46.5,9.2949 C46.5,9.2949 36.513,7.7579 23.347,14.0879 L23.347,46.4999 C23.347,46.4999 38.102,41.3219 46.273,42.2809 L46.5,9.2949 L46.5,9.2949 Z" id="Stroke-3" stroke="#FFFFFF" stroke-width="2"></path>
  <path d="M3.0548,3.9785 C3.0548,3.9785 13.1738,3.9785 20.6958,10.1775" id="Stroke-5" stroke="#FFFFFF" stroke-width="2"></path>
  <path d="M11.0548,0 C11.0548,0 18.5738,3.102 21.9938,8.156" id="Stroke-7" stroke="#FFFFFF" stroke-width="2"></path>
  <path d="M43.4443,3.9785 C43.4443,3.9785 33.3263,3.9785 25.8043,10.1775" id="Stroke-9" stroke="#FFFFFF" stroke-width="2"></path>
  <path d="M35.4443,0 C35.4443,0 27.9233,3.102 24.5053,8.156" id="Stroke-11" stroke="#FFFFFF" stroke-width="2"></path>
</svg>
