<?xml version="1.0" encoding="utf-8"?>
<!-- Generator: Adobe Illustrator 22.0.1, SVG Export Plug-In . SVG Version: 6.00 Build 0)  -->
<svg version="1.1" id="Layer_1" xmlns="http://www.w3.org/2000/svg" xmlns:xlink="http://www.w3.org/1999/xlink" x="0px" y="0px"
	 viewBox="0 0 508.4 130.8" style="enable-background:new 0 0 508.4 145.5;" xml:space="preserve">
<style type="text/css">
	.st0{fill:#FFFFFF;}
</style>
<g>
	<path class="st0" d="M321.8,145.3c0-31,0-61.9,0-92.9c0-1,0.2-1.3,1.2-1.3c11.2,0.1,22.5,0.1,33.7,0c1,0,1.3,0.3,1.2,1.3
		c0,4.5,0,9,0,13.4c0,0.4-0.1,0.9,0.2,1.5c1.4-1.4,2.7-2.8,4-4.1c5.1-4.9,10.6-9.2,17.6-10.9c8.7-2.2,17.1-1.4,24.6,4
		c3.5,2.5,5.8,5.9,7.6,9.7c0.3,0.5,0.5,1.1,0.8,1.8c0.7-0.7,1.3-1.4,1.9-2c5.6-5.8,12-10.6,19.9-12.9c7.7-2.3,15.4-2.3,22.8,1
		c6.7,2.9,10.5,8.3,12.7,15.1c1.4,4.4,2,8.9,2,13.5c0,20.7,0,41.3,0,62c0,0.3-0.1,0.6,0.1,0.9c-12.1,0-24.2,0-36.2,0
		c0-16.7,0-33.4,0-50.2c0-1.2-0.1-2.3-0.2-3.5c-0.7-5-4-7.9-9-8.1c-3.9-0.2-7.3,0.9-10.6,2.9c-0.9,0.5-1.2,1.2-1.2,2.2
		c0,18.6,0,37.2,0,55.8c0,0.3-0.1,0.6,0.1,0.8c-12.1,0-24.2,0-36.2,0c0-16.6,0-33.3,0-49.9c0-1.2-0.1-2.4-0.2-3.6
		c-0.7-4.9-3.5-7.7-8.5-8.3c-4.1-0.4-7.7,0.8-11.1,2.9c-0.9,0.5-1.2,1.1-1.2,2.1c0,18.6,0,37.3,0,55.9c0,0.3-0.1,0.6,0.1,0.8
		C345.9,145.3,333.8,145.3,321.8,145.3z"/>
	<path class="st0" d="M0.2,51.2c12.4,0,24.7,0,37.1,0c1,0,1.4,0.3,1.8,1.2C45,68.2,51,84,57,99.8c0.1,0.4,0.3,0.7,0.5,1.3
		c0.2-0.5,0.4-0.9,0.5-1.2C64.1,84,70.2,68.1,76.2,52.2c0.2-0.6,0.5-1,1.3-1c12.2,0,24.5,0,36.7,0c0.2,0,0.4,0,0.7,0.1
		c-13.4,31.4-26.8,62.7-40.2,94c-11.5,0-23,0-34.6,0c0-0.1,0-0.2,0-0.3C27.4,115.1,14.7,85.3,1.9,55.4c-0.5-1.3-0.9-2.6-1.8-3.7
		C0.2,51.5,0.2,51.4,0.2,51.2z"/>
	<path class="st0" d="M122.8,145.3c0.2-0.3,0.1-0.6,0.1-0.9c0-30.6,0-61.1,0-91.7c0-1.3,0.4-1.5,1.6-1.5c11,0,21.9,0,32.9,0
		c1.7,0,1.7,0,1.7,1.7c0,4.4,0,8.9,0,13.3c0,0.4,0,0.8,0,1.2c0.4,0.1,0.4-0.2,0.5-0.3c5.6-7.9,13.4-12.5,22.7-14.7
		c3.7-0.9,7.5-1.3,11.3-1.2c0.8,0,1,0.2,1,1c0,7.2,0,14.4,0,21.6c0,1-0.6,1-1.2,1.2c-6.8,1.2-13,3.9-18.4,8.2
		c-8.7,7-13.6,16.1-15.4,27c-0.4,2.5-0.5,5-0.5,7.5c0,9.2,0,18.4,0,27.6C147,145.3,134.9,145.3,122.8,145.3z"/>
	<path class="st0" d="M496.7,145.3c-0.4-0.4-0.5-0.9-0.5-1.5c0-3.3,0-6.6,0-9.9c0-0.7-0.1-1.5,0.8-1.6c1-0.1,2.1-0.4,2.6,0.9
		c0.7,1.8,1.4,3.5,2.2,5.3c0.1,0.2,0.2,0.5,0.5,1c0.9-2.1,1.6-4,2.4-5.9c0.3-0.7,0.7-1.2,1.5-1.3c1.6-0.1,2,0.2,2,1.8
		c0,3.2,0,6.4,0,9.6c0,0.7-0.1,1.3-0.7,1.7c-0.3,0-0.6,0-1,0c-0.4-0.5-0.5-1-0.5-1.6c0-2.6,0-5.1,0-7.7c-1,1.8-1.7,3.6-2.4,5.5
		c-0.3,0.7-0.7,1.1-1.5,1.1c-0.8,0-1.1-0.5-1.3-1.1c-0.7-1.8-1.5-3.6-2.2-5.4c-0.2,2.5-0.2,5-0.2,7.5c0,0.7-0.1,1.3-0.7,1.7
		C497.4,145.3,497,145.3,496.7,145.3z"/>
	<path class="st0" d="M487.8,145.3c-0.3-0.5-0.5-1-0.5-1.7c0-2.8,0-5.5,0-8.3c0-0.8-0.2-1.1-1-1c-0.8,0.1-1.6,0-2.4,0
		c-0.7,0-1-0.4-1-1.1c0-0.7,0.3-1,1-1c3,0,6,0,9,0c0.7,0,1,0.4,1.1,1c0,0.7-0.3,1-1,1c-0.8,0-1.6,0-2.4,0c-0.8-0.1-0.9,0.3-0.9,1
		c0,2.8,0,5.5,0,8.3c0,0.7-0.1,1.2-0.6,1.7C488.6,145.3,488.2,145.3,487.8,145.3z"/>
	<path class="st0" d="M258.9,145.1c-12.6-0.1-23.7-4.1-33.5-12c-0.8-0.7-1.1-0.5-1.7,0.2c-6.1,7.8-14.1,11.7-24,11.6
		c-14.6-0.1-27.1-11.7-28.5-26.3c-1.5-15.5,8.9-29.1,24.1-31.8c3.2-0.6,6.4-0.6,9.5,0c1,0.2,1.3-0.1,1.4-1
		c0.6-6.3,2.4-12.2,5.4-17.8c8.6-16.2,22-26,40.2-28.5c17.6-2.4,32.8,3,45.2,15.6c8.5,8.6,13.4,19.1,14.6,31.2
		c1.6,16.3-3.2,30.5-14.4,42.4c-9.1,9.6-20.4,14.9-33.6,16.2C262.1,145,260.5,145.1,258.9,145.1z M280,92c0-11.6-9.4-21.1-21-21.1
		c-11.2,0-21.2,8.8-21.2,21.1c0,11.6,9.5,21,20.8,21.1C270.5,113.1,280,103.8,280,92z M200.3,125.4c5.4,0,9.8-4.3,9.8-9.7
		c0-5.4-4.4-9.8-9.7-9.8c-5.4,0-9.8,4.4-9.8,9.7C190.6,121,195,125.4,200.3,125.4z"/>
	<path class="st0" d="M18,11.7c3.8-4.9,10.9-3.8,12.9,0.7c0.3,0,0.3-0.3,0.5-0.4c2.3-3.1,5.7-4.2,9.3-3c2.7,0.8,4.4,3.2,4.5,6.6
		c0.1,4,0.1,7.9,0,11.9c0,1.6-0.9,2.3-2.8,2.4c-2.1,0-3.1-0.6-3.1-2.4c-0.1-3,0-5.9-0.1-8.9c0-0.3,0-0.6,0-0.8
		c0-2.1-0.8-3.4-2.3-3.9c-1.7-0.5-3.8,0.3-4.9,1.8c-0.3,0.5-0.4,0.9-0.4,1.5c0,3.2-0.1,6.4,0,9.6c0.1,3.3-2.1,3.6-4.7,2.9
		c-0.8-0.2-1.2-1-1.3-1.8c-0.2-2.8,0-5.6-0.1-8.4c0-0.8,0-1.7-0.1-2.5c-0.3-2.4-2.1-3.6-4.4-3c-1.9,0.5-3,1.9-3,3.9c0,3,0,6.1,0,9.1
		c0,2.7-2.4,4.1-4.8,2.7c-0.8-0.5-1.1-1.3-1.1-2.1c0-5.8,0-11.5,0-17.3c0-0.6,0.3-0.8,0.8-1C15.3,8.1,17.2,9.1,18,11.7z"/>
	<path class="st0" d="M168,11.2c0-3.3,0-6.4,0-9.4c0-0.9,0.4-1.3,1.2-1.4c2.6-0.6,4.4,0.7,4.8,3.3c0.1,0.5,0.1,1,0.1,1.6
		c0,7-0.1,14.1,0,21.1c0,3.1-1.5,3.7-4.4,3.2c-1.4-0.3-1.5-1.6-1.7-2.9c-1.3,1.6-2.7,2.8-4.7,3.2c-4.3,0.8-8.4-1.2-10.1-5.2
		c-1.6-3.6-1.6-7.3,0-10.9C155.5,8,163.5,6.6,168,11.2z M168,18.8c-0.2-0.9,0.3-2-0.3-3c-1.1-1.9-3.2-2.9-5.5-2.5
		c-2.2,0.3-3.6,1.7-4.2,3.8c-0.4,1.4-0.4,2.8,0,4.1c0.6,2.4,2.6,4,4.9,4c2.4,0,4.4-1.4,5-3.5C168.1,20.8,167.9,19.9,168,18.8z"/>
	<path class="st0" d="M55.5,11.9c2.4-3.4,5.7-4.1,9.3-3.1c4,1.1,6,4.1,6.6,8C72,20.5,71.5,24,68.9,27c-3.2,3.8-10.1,4.4-13.1,0
		c-0.1-0.1-0.2-0.1-0.4-0.3c0,2.7,0,5.3,0,7.9c0,2.7-2.2,4-4.7,2.8c-0.6-0.3-0.9-0.8-1.1-1.4c-0.1-0.5-0.2-1.1-0.2-1.7
		c0-8,0-15.9,0-23.9c0-1.2,0.5-1.6,1.6-1.7C53.2,8.5,54.2,9.2,55.5,11.9z M55.4,18.7c0,0.6,0,1.1,0,1.7c0.2,2.8,1.9,4.6,4.5,4.9
		c2.6,0.3,4.8-1.2,5.6-3.9c0.3-1,0.3-2,0.2-3.1c-0.3-3.2-2.5-5.1-5.6-5C57.1,13.5,55.4,15.4,55.4,18.7z"/>
	<path class="st0" d="M215.7,26.7c0,2.9,0,5.4,0,8c0,1.1-0.1,2.2-1.2,2.7c-1.2,0.5-2.5,0.6-3.7-0.1c-1-0.6-1.1-1.6-1.1-2.6
		c0-6,0-11.9,0-17.9c0-2.2,0-4.4,0-6.6c0-0.8,0.3-1.1,0.9-1.3c2.4-0.7,4.1,0.2,5,2.9c0.1,0,0.2,0,0.2,0c3.1-5.1,12.7-4.5,15.3,2.8
		c1.1,3.1,1.1,6.2,0,9.3C228.7,30.6,219.8,32.3,215.7,26.7z M215.7,18.9c0,0.5,0,1,0,1.6c0.1,2.2,1.4,4,3.5,4.6
		c2.9,0.8,5.6-0.7,6.5-3.6c1.1-3.5-0.4-7-3.3-8C218.7,12.3,215.7,14.8,215.7,18.9z"/>
	<path class="st0" d="M142.9,26.8c-2.6,3-5.9,3.6-9.5,2.8c-2.5-0.6-4.1-2.5-4.3-4.7c-0.3-2.9,0.7-4.9,3.2-6.1c2.8-1.4,5.9-1.6,9-1.8
		c1.8-0.1,2-0.5,1.2-2.1c-0.8-1.6-2.8-2.3-5-1.8c-1.3,0.3-2.5,0.9-3.1,2.1c-0.6,1.2-1.5,1.1-2.5,0.8c-1.1-0.3-1.9-0.9-2-2.2
		c-0.1-1.5,0.7-2.5,1.8-3.3c1.5-1.1,3.1-1.6,4.9-1.8c2.2-0.3,4.5-0.3,6.7,0.3c3.6,1,5.6,3.5,5.6,7.3c0.1,4.1,0,8.2,0,12.2
		c0,0.8-0.3,1-1,1.2C145.3,30.2,144,29.5,142.9,26.8z M137.6,26c3.3,0,5.4-2.1,5.2-5c0-0.4,0-0.8-0.5-0.7c-2.1,0.1-4.3,0.1-6.3,1.1
		c-1,0.5-1.4,1.4-1.3,2.5c0.1,1.1,0.9,1.7,1.9,1.9C137,26,137.5,26,137.6,26z"/>
	<path class="st0" d="M89,26.7c-2.1,2.7-4.7,3.8-8,3.3c-3.5-0.5-5.8-2.8-6.1-6.5c-0.4-4.1-0.3-8.2-0.1-12.3c0.1-1.9,1-2.5,3.1-2.4
		c1.9,0.1,2.8,0.8,2.8,2.7c0.1,2.8,0,5.7,0,8.5c0,0.6,0,1.3,0.1,1.9c0.3,2.1,2,3.4,4.1,3.2c2.1-0.2,4.2-2,4.1-3.9
		c-0.2-3.1-0.1-6.3-0.1-9.5c0-1.1,0.1-2.2,1.2-2.6c1.2-0.5,2.5-0.5,3.7,0.1c0.9,0.5,1,1.5,1.1,2.4c0,5.6,0,11.2,0,16.8
		c0,0.6-0.3,0.9-0.8,1.1C91.8,30.2,90,29.3,89,26.7z"/>
	<path class="st0" d="M188.3,8.5c6.5,0,10.9,4.4,11,10.7c0,6.5-4.4,10.9-11.1,10.9c-6.5,0-10.9-4.4-10.9-10.8
		C177.3,12.8,181.7,8.5,188.3,8.5z M182.6,19.2c0,3.6,2.4,6.1,5.7,6.1c3.3,0,5.7-2.5,5.7-5.9c0-3.5-2.5-6.3-5.7-6.2
		C185,13.2,182.6,15.7,182.6,19.2z"/>
	<path class="st0" d="M245.1,8.5c6.6,0.1,10.9,4.5,10.9,11.1c-0.1,6.3-4.7,10.6-11.2,10.5C238.2,30,234,25.6,234,18.9
		C234.1,12.8,238.7,8.4,245.1,8.5z M250.7,19.3c0-3.5-2.4-6.2-5.7-6.2c-3.2,0-5.8,2.7-5.8,6.1c0,3.5,2.5,6.1,5.8,6.1
		C248.2,25.3,250.7,22.7,250.7,19.3z"/>
	<path class="st0" d="M117.3,29.9c-2.2,0-4.3-0.2-6.3-1.2c-0.8-0.4-1.4-0.9-1.9-1.6c-0.8-1.2-0.6-2.5,0.4-3.5
		c0.5-0.5,0.9-0.7,1.6-0.1c2.2,1.9,4.8,2.5,7.7,2.1c0.3-0.1,0.6-0.1,0.9-0.3c0.7-0.3,1.1-0.8,1.1-1.6c0-0.7-0.5-1.2-1.1-1.4
		c-1.3-0.5-2.7-0.7-4.1-1c-1-0.2-2-0.5-3-0.9c-2-0.9-3.3-2.3-3.5-4.6c-0.2-2.4,0.7-4.3,2.7-5.6c2.5-1.6,5.3-1.7,8.1-1.4
		c1.6,0.2,3.2,0.6,4.6,1.5c1.9,1.4,2.1,3.4,0.5,4.8c-0.5,0.5-0.9,0.6-1.5,0c-1.8-1.8-4.1-2.4-6.6-2.1c-0.5,0.1-1,0.2-1.5,0.5
		c-1.2,0.8-1.1,2.1,0.1,2.7c1.3,0.6,2.7,0.8,4,1.1c1.2,0.3,2.5,0.6,3.6,1.2c4.1,2,4.5,7.3,0.8,9.9C122.1,29.7,119.7,29.9,117.3,29.9
		z"/>
	<path class="st0" d="M1,15.8c0-3.5,0-7,0-10.6C1,4.1,1,3,2.2,2.4c1.3-0.6,2.7-0.6,4,0.1C6.7,2.7,7,3.2,7.1,3.7
		c0.1,0.5,0.2,1,0.2,1.5c0,7.1,0,14.1,0,21.2c0,0.5-0.1,1-0.2,1.4c-0.2,1-0.9,1.5-1.8,1.7c-0.8,0.1-1.6,0.1-2.4,0
		c-1-0.1-1.6-0.8-1.8-1.7C1,27.4,1,26.8,1,26.3C1,22.8,1,19.3,1,15.8z"/>
	<path class="st0" d="M99.5,14.4c0-4.2,0-8.3,0-12.5c0-1,0.3-1.4,1.3-1.6c2.5-0.4,4.2,0.7,4.6,3.3c0.1,0.5,0.1,1,0.1,1.4
		c0,7.2-0.1,14.3,0,21.5c0,3.2-2.1,3.6-4.7,2.9c-1.1-0.3-1.3-1.4-1.3-2.4C99.5,22.8,99.5,18.6,99.5,14.4z"/>
	<path class="st0" d="M265.2,11.8c1.1-2.5,3.1-3.6,5.8-3.3c1.4,0.2,2.5,0.9,2.9,2.4c0.3,1.4,0.1,2.7-1,3.7c-0.4,0.4-0.7,0.5-1.2,0.1
		c-2.7-1.5-5.1-0.5-5.9,2.5c-0.3,1-0.4,2-0.4,3c0,2.2,0,4.4,0,6.6c0,1.1-0.2,2.2-1.3,2.6c-1.2,0.5-2.5,0.5-3.7-0.2
		c-0.8-0.4-1-1.2-1-2.1c0-5.7,0-11.4,0-17.1c0-0.7,0.3-0.9,0.9-1.1C262.5,8.2,264.1,9,265.2,11.8z"/>
</g>
</svg>
